<svg width="511" height="389" viewBox="0 0 511 389" fill="none" xmlns="http://www.w3.org/2000/svg">
<rect width="293.471" height="293.471" rx="85.8452" transform="matrix(0.866044 -0.499967 0.866044 0.499967 1.36633 241.858)" fill="#2E3340"/>
<rect x="14.8692" width="276.302" height="276.302" rx="77.2607" transform="matrix(0.866044 -0.499967 0.866044 0.499967 3.35814 249.292)" stroke="url(#paint0_linear_1614_5589)" stroke-opacity="0.33" stroke-width="17.169"/>
<path d="M171.099 215.144C157.828 200.507 185.161 184.728 210.516 192.389L241.986 201.898C250.469 204.461 260.589 204.461 269.071 201.898L300.541 192.389C325.896 184.728 353.229 200.507 339.958 215.144L323.486 233.312C319.046 238.209 319.046 244.051 323.486 248.949L339.958 267.116C353.229 281.753 325.896 297.533 300.541 289.871L269.071 280.362C260.589 277.799 250.469 277.799 241.986 280.362L210.516 289.871C185.161 297.533 157.828 281.753 171.099 267.116L187.571 248.948C192.011 244.051 192.011 238.209 187.571 233.312L171.099 215.144Z" fill="#F2F2F7"/>
<rect width="293.471" height="293.471" rx="85.8452" transform="matrix(0.866044 -0.499967 0.866044 0.499967 1.36655 231.539)" fill="#2E3340"/>
<rect x="14.8692" width="276.302" height="276.302" rx="77.2607" transform="matrix(0.866044 -0.499967 0.866044 0.499967 3.35835 238.973)" stroke="url(#paint1_linear_1614_5589)" stroke-opacity="0.33" stroke-width="17.169"/>
<path d="M171.099 204.825C157.828 190.187 185.161 174.408 210.516 182.07L241.986 191.579C250.469 194.142 260.589 194.142 269.072 191.579L300.542 182.07C325.896 174.408 353.229 190.188 339.958 204.825L323.487 222.992C319.047 227.889 319.047 233.732 323.487 238.629L339.958 256.797C353.229 271.434 325.896 287.213 300.542 279.552L269.072 270.043C260.589 267.479 250.469 267.479 241.986 270.043L210.516 279.552C185.161 287.213 157.828 271.434 171.099 256.796L187.571 238.629C192.011 233.732 192.011 227.889 187.571 222.992L171.099 204.825Z" fill="#F2F2F7"/>
<rect width="293.471" height="293.471" rx="85.8452" transform="matrix(0.866044 -0.499967 0.866044 0.499967 1.36664 221.213)" fill="#2E3340"/>
<rect x="14.8692" width="276.302" height="276.302" rx="77.2607" transform="matrix(0.866044 -0.499967 0.866044 0.499967 3.35844 228.647)" stroke="url(#paint2_linear_1614_5589)" stroke-opacity="0.33" stroke-width="17.169"/>
<path d="M171.099 194.499C157.828 179.862 185.161 164.083 210.516 171.744L241.986 181.253C250.469 183.816 260.589 183.816 269.071 181.253L300.541 171.744C325.896 164.083 353.229 179.862 339.958 194.499L323.486 212.667C319.046 217.564 319.047 223.406 323.486 228.303L339.958 246.471C353.229 261.108 325.896 276.887 300.541 269.226L269.071 259.717C260.589 257.154 250.469 257.154 241.986 259.717L210.516 269.226C185.161 276.887 157.828 261.108 171.099 246.471L187.571 228.303C192.011 223.406 192.011 217.564 187.571 212.667L171.099 194.499Z" fill="#F2F2F7"/>
<rect width="293.471" height="293.471" rx="85.8452" transform="matrix(0.866044 -0.499967 0.866044 0.499967 1.36667 210.892)" fill="#2E3340"/>
<rect x="14.8692" width="276.302" height="276.302" rx="77.2607" transform="matrix(0.866044 -0.499967 0.866044 0.499967 3.35848 218.326)" stroke="url(#paint3_linear_1614_5589)" stroke-opacity="0.33" stroke-width="17.169"/>
<path d="M171.099 184.179C157.828 169.542 185.161 153.762 210.516 161.424L241.986 170.933C250.469 173.496 260.589 173.496 269.071 170.933L300.541 161.424C325.896 153.762 353.229 169.542 339.958 184.179L323.486 202.347C319.047 207.244 319.047 213.086 323.486 217.983L339.958 236.151C353.229 250.788 325.896 266.567 300.541 258.906L269.071 249.397C260.589 246.834 250.469 246.834 241.986 249.397L210.516 258.906C185.161 266.567 157.828 250.788 171.099 236.151L187.571 217.983C192.011 213.086 192.011 207.244 187.571 202.347L171.099 184.179Z" fill="#F2F2F7"/>
<rect width="293.471" height="293.471" rx="85.8452" transform="matrix(0.866044 -0.499967 0.866044 0.499967 1.36664 200.572)" fill="#2E3340"/>
<rect x="14.8692" width="276.302" height="276.302" rx="77.2607" transform="matrix(0.866044 -0.499967 0.866044 0.499967 3.35844 208.006)" stroke="url(#paint4_linear_1614_5589)" stroke-opacity="0.33" stroke-width="17.169"/>
<path d="M171.099 173.859C157.828 159.222 185.161 143.442 210.516 151.104L241.986 160.613C250.469 163.176 260.589 163.176 269.071 160.613L300.541 151.104C325.896 143.442 353.229 159.222 339.958 173.859L323.486 192.027C319.046 196.924 319.047 202.766 323.486 207.663L339.958 225.831C353.229 240.468 325.896 256.247 300.541 248.586L269.071 239.077C260.589 236.514 250.469 236.514 241.986 239.077L210.516 248.586C185.161 256.247 157.828 240.468 171.099 225.831L187.571 207.663C192.011 202.766 192.011 196.924 187.571 192.027L171.099 173.859Z" fill="#F2F2F7"/>
<rect width="293.471" height="293.471" rx="85.8452" transform="matrix(0.866044 -0.499967 0.866044 0.499967 1.36664 190.253)" fill="#2E3340"/>
<rect x="14.8692" width="276.302" height="276.302" rx="77.2607" transform="matrix(0.866044 -0.499967 0.866044 0.499967 3.35844 197.687)" stroke="url(#paint5_linear_1614_5589)" stroke-opacity="0.33" stroke-width="17.169"/>
<path d="M171.099 163.539C157.828 148.902 185.161 133.123 210.516 140.784L241.986 150.293C250.469 152.856 260.589 152.856 269.071 150.293L300.541 140.784C325.896 133.123 353.229 148.902 339.958 163.539L323.486 181.707C319.046 186.604 319.047 192.446 323.486 197.343L339.958 215.511C353.229 230.148 325.896 245.927 300.541 238.266L269.071 228.757C260.589 226.194 250.469 226.194 241.986 228.757L210.516 238.266C185.161 245.927 157.828 230.148 171.099 215.511L187.571 197.343C192.011 192.446 192.011 186.604 187.571 181.707L171.099 163.539Z" fill="#F2F2F7"/>
<rect width="293.471" height="293.471" rx="85.8452" transform="matrix(0.866044 -0.499967 0.866044 0.499967 1.36655 179.933)" fill="#2E3340"/>
<rect x="14.8692" width="276.302" height="276.302" rx="77.2607" transform="matrix(0.866044 -0.499967 0.866044 0.499967 3.35835 187.367)" stroke="url(#paint6_linear_1614_5589)" stroke-opacity="0.33" stroke-width="17.169"/>
<path d="M171.099 153.219C157.828 138.582 185.161 122.802 210.516 130.464L241.986 139.973C250.469 142.536 260.589 142.536 269.071 139.973L300.541 130.464C325.896 122.802 353.229 138.582 339.958 153.219L323.486 171.387C319.046 176.284 319.047 182.126 323.486 187.023L339.958 205.191C353.229 219.828 325.896 235.607 300.541 227.946L269.071 218.437C260.589 215.874 250.469 215.874 241.986 218.437L210.516 227.946C185.161 235.607 157.828 219.828 171.099 205.191L187.571 187.023C192.011 182.126 192.011 176.284 187.571 171.387L171.099 153.219Z" fill="#F2F2F7"/>
<rect width="293.471" height="293.471" rx="85.8452" transform="matrix(0.866044 -0.499967 0.866044 0.499967 1.36664 169.608)" fill="#2E3340"/>
<rect x="14.8692" width="276.302" height="276.302" rx="77.2607" transform="matrix(0.866044 -0.499967 0.866044 0.499967 3.35844 177.042)" stroke="url(#paint7_linear_1614_5589)" stroke-opacity="0.33" stroke-width="17.169"/>
<path d="M171.099 142.894C157.828 128.256 185.161 112.477 210.516 120.138L241.986 129.647C250.469 132.211 260.589 132.211 269.071 129.647L300.541 120.138C325.896 112.477 353.229 128.256 339.958 142.894L323.486 161.061C319.046 165.958 319.047 171.801 323.486 176.698L339.958 194.865C353.229 209.503 325.896 225.282 300.541 217.621L269.071 208.111C260.589 205.548 250.469 205.548 241.986 208.111L210.516 217.621C185.161 225.282 157.828 209.503 171.099 194.865L187.571 176.698C192.011 171.801 192.011 165.958 187.571 161.061L171.099 142.894Z" fill="#F2F2F7"/>
<rect width="293.471" height="293.471" rx="85.8452" transform="matrix(0.866044 -0.499967 0.866044 0.499967 1.36655 159.287)" fill="#2E3340"/>
<rect x="14.8692" width="276.302" height="276.302" rx="77.2607" transform="matrix(0.866044 -0.499967 0.866044 0.499967 3.35835 166.721)" stroke="url(#paint8_linear_1614_5589)" stroke-opacity="0.33" stroke-width="17.169"/>
<path d="M171.099 132.573C157.828 117.936 185.161 102.157 210.516 109.818L241.986 119.327C250.469 121.89 260.589 121.89 269.071 119.327L300.541 109.818C325.896 102.157 353.229 117.936 339.958 132.573L323.486 150.741C319.046 155.638 319.047 161.48 323.486 166.377L339.958 184.545C353.229 199.182 325.896 214.962 300.541 207.3L269.071 197.791C260.589 195.228 250.469 195.228 241.986 197.791L210.516 207.3C185.161 214.962 157.828 199.182 171.099 184.545L187.571 166.377C192.011 161.48 192.011 155.638 187.571 150.741L171.099 132.573Z" fill="#F2F2F7"/>
<rect width="293.471" height="293.471" rx="85.8452" transform="matrix(0.866044 -0.499967 0.866044 0.499967 1.36551 148.967)" fill="#2E3340"/>
<rect x="14.8692" width="276.302" height="276.302" rx="77.2607" transform="matrix(0.866044 -0.499967 0.866044 0.499967 3.35732 156.401)" stroke="url(#paint9_linear_1614_5589)" stroke-opacity="0.33" stroke-width="17.169"/>
<path d="M171.098 122.253C157.827 107.616 185.16 91.8364 210.515 99.4978L241.985 109.007C250.468 111.57 260.588 111.57 269.07 109.007L300.54 99.4978C325.895 91.8365 353.228 107.616 339.957 122.253L323.485 140.421C319.045 145.318 319.045 151.16 323.485 156.057L339.957 174.225C353.228 188.862 325.895 204.641 300.54 196.98L269.07 187.471C260.588 184.908 250.468 184.908 241.985 187.471L210.515 196.98C185.16 204.641 157.827 188.862 171.098 174.225L187.57 156.057C192.01 151.16 192.01 145.318 187.57 140.421L171.098 122.253Z" fill="#F2F2F7"/>
<defs>
<linearGradient id="paint0_linear_1614_5589" x1="146.735" y1="-1.46516e-05" x2="304.157" y2="99.9944" gradientUnits="userSpaceOnUse">
<stop stop-color="#DBEAFE"/>
<stop offset="1" stop-color="#C7DFFF"/>
</linearGradient>
<linearGradient id="paint1_linear_1614_5589" x1="146.735" y1="-1.46516e-05" x2="304.157" y2="99.9944" gradientUnits="userSpaceOnUse">
<stop stop-color="#DBEAFE"/>
<stop offset="1" stop-color="#C7DFFF"/>
</linearGradient>
<linearGradient id="paint2_linear_1614_5589" x1="146.735" y1="-1.46516e-05" x2="304.157" y2="99.9944" gradientUnits="userSpaceOnUse">
<stop stop-color="#DBEAFE"/>
<stop offset="1" stop-color="#C7DFFF"/>
</linearGradient>
<linearGradient id="paint3_linear_1614_5589" x1="146.735" y1="-1.46516e-05" x2="304.157" y2="99.9944" gradientUnits="userSpaceOnUse">
<stop stop-color="#DBEAFE"/>
<stop offset="1" stop-color="#C7DFFF"/>
</linearGradient>
<linearGradient id="paint4_linear_1614_5589" x1="146.735" y1="-1.46516e-05" x2="304.157" y2="99.9944" gradientUnits="userSpaceOnUse">
<stop stop-color="#DBEAFE"/>
<stop offset="1" stop-color="#C7DFFF"/>
</linearGradient>
<linearGradient id="paint5_linear_1614_5589" x1="146.735" y1="-1.46516e-05" x2="304.157" y2="99.9944" gradientUnits="userSpaceOnUse">
<stop stop-color="#DBEAFE"/>
<stop offset="1" stop-color="#C7DFFF"/>
</linearGradient>
<linearGradient id="paint6_linear_1614_5589" x1="146.735" y1="-1.46516e-05" x2="304.157" y2="99.9944" gradientUnits="userSpaceOnUse">
<stop stop-color="#DBEAFE"/>
<stop offset="1" stop-color="#C7DFFF"/>
</linearGradient>
<linearGradient id="paint7_linear_1614_5589" x1="146.735" y1="-1.46516e-05" x2="304.157" y2="99.9944" gradientUnits="userSpaceOnUse">
<stop stop-color="#DBEAFE"/>
<stop offset="1" stop-color="#C7DFFF"/>
</linearGradient>
<linearGradient id="paint8_linear_1614_5589" x1="146.735" y1="-1.46516e-05" x2="304.157" y2="99.9944" gradientUnits="userSpaceOnUse">
<stop stop-color="#DBEAFE"/>
<stop offset="1" stop-color="#C7DFFF"/>
</linearGradient>
<linearGradient id="paint9_linear_1614_5589" x1="146.735" y1="-1.46516e-05" x2="304.157" y2="99.9944" gradientUnits="userSpaceOnUse">
<stop stop-color="#DBEAFE"/>
<stop offset="1" stop-color="#C7DFFF"/>
</linearGradient>
</defs>
</svg>
